M48
; DRILL file {KiCad 7.0.2} date Tue Jun  6 15:03:28 2023
; FORMAT={-:-/ absolute / inch / decimal}
; #@! TF.CreationDate,2023-06-06T15:03:28-03:00
; #@! TF.GenerationSoftware,Kicad,Pcbnew,7.0.2
; #@! TF.FileFunction,Plated,1,2,PTH
FMAT,2
INCH
; #@! TA.AperFunction,Plated,PTH,ViaDrill
T1C0.0157
; #@! TA.AperFunction,Plated,PTH,ComponentDrill
T2C0.0394
; #@! TA.AperFunction,Plated,PTH,ComponentDrill
T3C0.0433
%
G90
G05
T1
X4.9173Y-3.5157
X5.0906Y-3.5157
X6.4291Y-3.8701
X6.7303Y-3.872
T2
X4.5433Y-1.8189
X4.5433Y-1.9189
X4.5433Y-2.0189
X4.5433Y-2.1189
X4.5433Y-2.2189
X4.5433Y-2.3189
X4.5433Y-2.4189
X4.5433Y-2.5189
X4.5433Y-2.6189
X4.5433Y-2.7189
X4.5433Y-2.8189
X4.5433Y-2.9189
X4.5433Y-3.0189
X4.5433Y-3.1189
X4.5433Y-3.2189
X4.5433Y-3.3189
X4.5433Y-3.4189
X4.5433Y-3.5189
X4.5433Y-3.6189
X4.5433Y-3.7189
X4.8189Y-1.8189
X4.8189Y-1.9189
X4.8189Y-2.0189
X4.8189Y-2.1189
X4.8189Y-2.2189
X4.8189Y-2.3189
X4.8189Y-2.4189
X4.8189Y-2.5189
X4.8189Y-2.6189
X4.8189Y-2.7189
X4.8189Y-2.8189
X4.8189Y-2.9189
X4.8189Y-3.0189
X4.8189Y-3.1189
X4.8189Y-3.2189
X4.8189Y-3.3189
X4.8189Y-3.4189
X4.8189Y-3.5189
X4.8189Y-3.6189
X4.8189Y-3.7189
X5.5197Y-1.8189
X5.5197Y-1.9189
X5.5197Y-2.0189
X5.5197Y-2.1189
X5.5197Y-2.2189
X5.5197Y-2.3189
X5.5197Y-2.4189
X5.5197Y-2.5189
X5.5197Y-2.6189
X5.5197Y-2.7189
X5.5197Y-2.8189
X5.5197Y-2.9189
X5.5197Y-3.0189
X5.5197Y-3.1189
X5.5197Y-3.2189
X5.5197Y-3.3189
X5.5197Y-3.4189
X5.5197Y-3.5189
X5.5197Y-3.6189
X5.5197Y-3.7189
X5.7953Y-1.8193
X5.7953Y-1.9193
X5.7953Y-2.0193
X5.7953Y-2.1193
X5.7953Y-2.2193
X5.7953Y-2.3193
X5.7953Y-2.4193
X5.7953Y-2.5193
X5.7953Y-2.6193
X5.7953Y-2.7193
X5.7953Y-2.8193
X5.7953Y-2.9193
X5.7953Y-3.0193
X5.7953Y-3.1193
X5.7953Y-3.2193
X5.7953Y-3.3193
X5.7953Y-3.4193
X5.7953Y-3.5193
X5.7953Y-3.6193
X5.7953Y-3.7193
X6.324Y-4.0453
X6.424Y-4.0453
X6.4291Y-2.4813
X6.4311Y-1.8947
X6.4311Y-1.9947
X6.4311Y-2.0947
X6.524Y-4.0453
X6.5291Y-2.4813
X6.624Y-4.0453
X6.6291Y-2.4813
X6.724Y-4.0453
X6.7291Y-2.4813
X6.7362Y-1.8941
X6.7362Y-1.9941
X6.7362Y-2.0941
X6.824Y-4.0453
T3
X5.0925Y-3.9941
X5.0925Y-4.25
X5.2697Y-3.9941
X5.2697Y-4.25
T0
M30
