%TF.GenerationSoftware,KiCad,Pcbnew,7.0.2*%
%TF.CreationDate,2023-06-06T15:03:05-03:00*%
%TF.ProjectId,Pico-Carrier,5069636f-2d43-4617-9272-6965722e6b69,rev?*%
%TF.SameCoordinates,Original*%
%TF.FileFunction,Soldermask,Bot*%
%TF.FilePolarity,Negative*%
%FSLAX46Y46*%
G04 Gerber Fmt 4.6, Leading zero omitted, Abs format (unit mm)*
G04 Created by KiCad (PCBNEW 7.0.2) date 2023-06-06 15:03:05*
%MOMM*%
%LPD*%
G01*
G04 APERTURE LIST*
%ADD10R,1.700000X1.700000*%
%ADD11O,1.700000X1.700000*%
%ADD12C,2.000000*%
G04 APERTURE END LIST*
D10*
%TO.C,J1*%
X122400000Y-46200000D03*
D11*
X122400000Y-48740000D03*
X122400000Y-51280000D03*
X122400000Y-53820000D03*
X122400000Y-56360000D03*
X122400000Y-58900000D03*
X122400000Y-61440000D03*
X122400000Y-63980000D03*
X122400000Y-66520000D03*
X122400000Y-69060000D03*
X122400000Y-71600000D03*
X122400000Y-74140000D03*
X122400000Y-76680000D03*
X122400000Y-79220000D03*
X122400000Y-81760000D03*
X122400000Y-84300000D03*
X122400000Y-86840000D03*
X122400000Y-89380000D03*
X122400000Y-91920000D03*
X122400000Y-94460000D03*
%TD*%
D10*
%TO.C,J6*%
X160630000Y-102750000D03*
D11*
X163170000Y-102750000D03*
X165710000Y-102750000D03*
X168250000Y-102750000D03*
X170790000Y-102750000D03*
X173330000Y-102750000D03*
%TD*%
D10*
%TO.C,J5*%
X171100000Y-48110000D03*
D11*
X171100000Y-50650000D03*
X171100000Y-53190000D03*
%TD*%
D10*
%TO.C,J7*%
X115400000Y-46200000D03*
D11*
X115400000Y-48740000D03*
X115400000Y-51280000D03*
X115400000Y-53820000D03*
X115400000Y-56360000D03*
X115400000Y-58900000D03*
X115400000Y-61440000D03*
X115400000Y-63980000D03*
X115400000Y-66520000D03*
X115400000Y-69060000D03*
X115400000Y-71600000D03*
X115400000Y-74140000D03*
X115400000Y-76680000D03*
X115400000Y-79220000D03*
X115400000Y-81760000D03*
X115400000Y-84300000D03*
X115400000Y-86840000D03*
X115400000Y-89380000D03*
X115400000Y-91920000D03*
X115400000Y-94460000D03*
%TD*%
D10*
%TO.C,J4*%
X163350000Y-48125000D03*
D11*
X163350000Y-50665000D03*
X163350000Y-53205000D03*
%TD*%
D10*
%TO.C,J8*%
X147200000Y-46210000D03*
D11*
X147200000Y-48750000D03*
X147200000Y-51290000D03*
X147200000Y-53830000D03*
X147200000Y-56370000D03*
X147200000Y-58910000D03*
X147200000Y-61450000D03*
X147200000Y-63990000D03*
X147200000Y-66530000D03*
X147200000Y-69070000D03*
X147200000Y-71610000D03*
X147200000Y-74150000D03*
X147200000Y-76690000D03*
X147200000Y-79230000D03*
X147200000Y-81770000D03*
X147200000Y-84310000D03*
X147200000Y-86850000D03*
X147200000Y-89390000D03*
X147200000Y-91930000D03*
X147200000Y-94470000D03*
%TD*%
D12*
%TO.C,SW1*%
X133850000Y-101450000D03*
X133850000Y-107950000D03*
X129350000Y-101450000D03*
X129350000Y-107950000D03*
%TD*%
D10*
%TO.C,J2*%
X140200000Y-46200000D03*
D11*
X140200000Y-48740000D03*
X140200000Y-51280000D03*
X140200000Y-53820000D03*
X140200000Y-56360000D03*
X140200000Y-58900000D03*
X140200000Y-61440000D03*
X140200000Y-63980000D03*
X140200000Y-66520000D03*
X140200000Y-69060000D03*
X140200000Y-71600000D03*
X140200000Y-74140000D03*
X140200000Y-76680000D03*
X140200000Y-79220000D03*
X140200000Y-81760000D03*
X140200000Y-84300000D03*
X140200000Y-86840000D03*
X140200000Y-89380000D03*
X140200000Y-91920000D03*
X140200000Y-94460000D03*
%TD*%
D10*
%TO.C,J3*%
X163300000Y-63025000D03*
D11*
X165840000Y-63025000D03*
X168380000Y-63025000D03*
X170920000Y-63025000D03*
%TD*%
M02*
